<svg width="100" height="100" viewBox="0 0 100 100" fill="none" xmlns="http://www.w3.org/2000/svg">
<rect width="100" height="100" rx="10" fill="#292929"/>
<path d="M38.4482 61H26.0732V26.0909H38.5504C42.0618 26.0909 45.0845 26.7898 47.6186 28.1875C50.1527 29.5739 52.1016 31.5682 53.4652 34.1705C54.8402 36.7727 55.5277 39.8864 55.5277 43.5114C55.5277 47.1477 54.8402 50.2727 53.4652 52.8864C52.1016 55.5 50.1413 57.5057 47.5845 58.9034C45.0391 60.3011 41.9936 61 38.4482 61ZM33.4538 54.6761H38.1413C40.3232 54.6761 42.1584 54.2898 43.647 53.517C45.147 52.733 46.272 51.5227 47.022 49.8864C47.7834 48.2386 48.1641 46.1136 48.1641 43.5114C48.1641 40.9318 47.7834 38.8239 47.022 37.1875C46.272 35.5511 45.1527 34.3466 43.6641 33.5739C42.1754 32.8011 40.3402 32.4148 38.1584 32.4148H33.4538V54.6761Z" fill="white"/>
<path d="M49.598 73H41.6889L53.7401 38.0909H63.2514L75.2855 73H67.3764L58.6321 46.0682H58.3594L49.598 73ZM49.1037 59.2784H67.7855V65.0398H49.1037V59.2784Z" fill="#FF7D41"/>
</svg>
