<svg width="512" height="512" viewBox="0 0 512 512" fill="none" xmlns="http://www.w3.org/2000/svg">
<rect width="512" height="512" rx="24" fill="url(#paint0_linear_65_5026)"/>
<path d="M192.85 382.788C185.791 389.656 176.852 394.276 167.166 396.061C157.479 397.846 147.481 396.717 138.437 392.817C129.392 388.916 121.709 382.42 116.359 374.15C111.009 365.88 108.233 356.209 108.383 346.36C108.533 336.512 111.601 326.929 117.201 318.826C122.8 310.723 130.677 304.463 139.836 300.84C148.995 297.216 159.023 296.392 168.651 298.471C178.278 300.55 187.072 305.44 193.92 312.52C203.07 321.993 208.095 334.705 207.894 347.875C207.694 361.044 202.285 373.597 192.85 382.788ZM134.192 322.296C129.312 327.054 125.95 333.15 124.531 339.816C123.113 346.482 123.701 353.419 126.221 359.752C128.742 366.084 133.081 371.527 138.693 375.395C144.305 379.263 150.936 381.382 157.751 381.484C164.565 381.587 171.258 379.668 176.983 375.97C182.708 372.272 187.209 366.961 189.918 360.707C192.627 354.453 193.423 347.537 192.205 340.831C190.987 334.126 187.81 327.931 183.074 323.03C179.918 319.766 176.149 317.156 171.984 315.35C167.818 313.544 163.337 312.576 158.798 312.502C154.258 312.428 149.748 313.25 145.526 314.92C141.304 316.59 137.453 319.076 134.192 322.235V322.296Z" fill="white"/>
<path d="M366.748 151.362L322.968 193.798C322.825 193.94 322.711 194.109 322.634 194.295C322.556 194.481 322.516 194.681 322.516 194.882C322.516 195.084 322.556 195.284 322.634 195.47C322.711 195.656 322.825 195.825 322.968 195.967L344.72 218.391C344.86 218.534 345.026 218.647 345.21 218.724C345.393 218.801 345.591 218.841 345.79 218.841C345.989 218.841 346.186 218.801 346.37 218.724C346.553 218.647 346.72 218.534 346.859 218.391L355.291 210.173C355.433 210.034 355.546 209.867 355.624 209.684C355.701 209.5 355.74 209.303 355.74 209.104C355.74 208.905 355.701 208.708 355.624 208.524C355.546 208.34 355.433 208.174 355.291 208.035L346.828 199.297C346.549 199.011 346.392 198.628 346.392 198.228C346.392 197.828 346.549 197.444 346.828 197.158L350.769 193.37C350.912 193.227 351.08 193.113 351.267 193.036C351.453 192.958 351.652 192.918 351.854 192.918C352.056 192.918 352.255 192.958 352.442 193.036C352.628 193.113 352.797 193.227 352.939 193.37L361.401 202.169C361.538 202.315 361.704 202.431 361.888 202.511C362.072 202.591 362.27 202.632 362.471 202.632C362.671 202.632 362.869 202.591 363.053 202.511C363.237 202.431 363.403 202.315 363.54 202.169L373.194 192.82C373.34 192.683 373.457 192.517 373.536 192.333C373.616 192.149 373.657 191.951 373.657 191.751C373.657 191.55 373.616 191.352 373.536 191.168C373.457 190.984 373.34 190.819 373.194 190.682L364.762 181.974C364.619 181.832 364.505 181.663 364.428 181.477C364.35 181.291 364.31 181.092 364.31 180.89C364.31 180.688 364.35 180.489 364.428 180.302C364.505 180.116 364.619 179.947 364.762 179.805L368.611 176.078C368.751 175.936 368.917 175.823 369.101 175.746C369.284 175.668 369.482 175.629 369.681 175.629C369.88 175.629 370.077 175.668 370.261 175.746C370.444 175.823 370.611 175.936 370.75 176.078L379.213 184.816C379.352 184.958 379.518 185.071 379.702 185.148C379.886 185.225 380.083 185.265 380.282 185.265C380.481 185.265 380.678 185.225 380.862 185.148C381.045 185.071 381.212 184.958 381.351 184.816L390.517 175.895C390.663 175.758 390.779 175.592 390.859 175.408C390.938 175.224 390.979 175.026 390.979 174.825C390.979 174.625 390.938 174.427 390.859 174.243C390.779 174.059 390.663 173.893 390.517 173.756L368.795 151.332C368.51 151.082 368.143 150.948 367.765 150.953C367.387 150.959 367.025 151.105 366.748 151.362Z" fill="white"/>
<path d="M379.183 151.973L195.875 329.659C194.759 330.487 193.366 330.851 191.988 330.674C190.61 330.498 189.353 329.795 188.482 328.712L183.319 323.365C182.26 322.463 181.592 321.186 181.455 319.801C181.319 318.417 181.724 317.034 182.586 315.942L365.893 138.378C367.009 137.55 368.402 137.186 369.78 137.363C371.159 137.539 372.415 138.243 373.286 139.325L378.449 144.488C379.526 145.393 380.205 146.682 380.342 148.081C380.479 149.48 380.063 150.878 379.183 151.973Z" fill="white"/>
<path d="M192.85 382.788C185.791 389.656 176.852 394.276 167.166 396.061C157.479 397.846 147.481 396.717 138.437 392.817C129.392 388.916 121.709 382.42 116.359 374.15C111.009 365.88 108.233 356.209 108.383 346.36C108.533 336.512 111.601 326.929 117.201 318.826C122.8 310.723 130.677 304.463 139.836 300.84C148.995 297.216 159.023 296.392 168.651 298.471C178.278 300.55 187.072 305.44 193.92 312.52C203.07 321.993 208.095 334.705 207.894 347.875C207.694 361.044 202.285 373.597 192.85 382.788ZM134.192 322.296C129.312 327.054 125.95 333.15 124.531 339.816C123.113 346.482 123.701 353.419 126.221 359.752C128.742 366.084 133.081 371.527 138.693 375.395C144.305 379.263 150.936 381.382 157.751 381.484C164.565 381.587 171.258 379.668 176.983 375.97C182.708 372.272 187.209 366.961 189.918 360.707C192.627 354.453 193.423 347.537 192.205 340.831C190.987 334.126 187.81 327.931 183.074 323.03C179.918 319.766 176.149 317.156 171.984 315.35C167.818 313.544 163.337 312.576 158.798 312.502C154.258 312.428 149.748 313.25 145.526 314.92C141.304 316.59 137.453 319.076 134.192 322.235V322.296Z" fill="white"/>
<path d="M129.365 219.736C136.021 224.027 143.71 226.446 151.624 226.736C159.538 227.026 167.384 225.178 174.336 221.385L361.401 388.897C364.857 392.062 369.423 393.731 374.105 393.542C378.786 393.354 383.203 391.321 386.392 387.889C389.577 384.44 391.268 379.871 391.097 375.18C391.052 371.238 389.613 367.438 387.034 364.456L197.616 194.653C200.366 175.345 193.309 156.098 177.117 145.771C170.626 141.602 163.153 139.212 155.448 138.842C147.742 138.472 140.075 140.135 133.214 143.663L162.757 162.666C163.753 163.278 164.614 164.085 165.288 165.038C165.963 165.992 166.438 167.073 166.683 168.215C166.929 169.357 166.94 170.537 166.717 171.684C166.494 172.83 166.041 173.92 165.385 174.887L151.026 197.311C150.402 198.293 149.59 199.142 148.635 199.807C147.681 200.472 146.603 200.94 145.466 201.185C144.329 201.429 143.154 201.445 142.01 201.231C140.867 201.017 139.777 200.578 138.805 199.939L109.262 180.936C108.924 188.597 110.603 196.212 114.131 203.021C117.658 209.83 122.912 215.593 129.365 219.736Z" fill="#FCFCFC"/>
<path d="M367.512 380.771C368.237 381.442 369.088 381.963 370.016 382.305C370.943 382.647 371.929 382.802 372.916 382.762C373.904 382.723 374.874 382.488 375.771 382.073C376.668 381.658 377.474 381.07 378.143 380.343C378.814 379.617 379.336 378.767 379.678 377.839C380.019 376.912 380.175 375.926 380.135 374.938C380.095 373.951 379.861 372.981 379.446 372.084C379.031 371.187 378.443 370.381 377.716 369.711L212.739 222.546C212.014 221.878 211.164 221.36 210.238 221.021C209.312 220.682 208.329 220.53 207.343 220.572C206.358 220.615 205.391 220.852 204.498 221.269C203.605 221.687 202.803 222.276 202.138 223.005C201.462 223.724 200.936 224.57 200.59 225.494C200.244 226.418 200.084 227.402 200.121 228.388C200.158 229.374 200.391 230.344 200.805 231.239C201.22 232.135 201.808 232.939 202.535 233.606L367.512 380.771Z" fill="#E9E9E9"/>
<path d="M244.177 194.653L294.189 128.51H251.692L267.701 81.0334C267.801 80.7156 267.786 80.3725 267.656 80.0653C267.527 79.7581 267.293 79.5068 266.996 79.3563C266.698 79.2058 266.357 79.1659 266.033 79.2436C265.709 79.3214 265.423 79.5118 265.226 79.7808C259.116 89.1906 266.723 77.52 221.049 146.474H260.583L241.794 193.37C241.726 193.669 241.759 193.982 241.886 194.261C242.014 194.54 242.229 194.77 242.499 194.915C242.769 195.061 243.079 195.114 243.382 195.066C243.685 195.019 243.964 194.874 244.177 194.653Z" fill="#F6AE2D"/>
<defs>
<linearGradient id="paint0_linear_65_5026" x1="256" y1="0" x2="256" y2="512" gradientUnits="userSpaceOnUse">
<stop stop-color="#33658A"/>
<stop offset="1" stop-color="#2F4858"/>
</linearGradient>
</defs>
</svg>
