<svg width="100" height="100" viewBox="0 0 100 100" fill="none" xmlns="http://www.w3.org/2000/svg">
<rect width="100" height="100" rx="10" fill="#FF4200"/>
<g clip-path="url(#clip0_2_3398)">
<path d="M50.959 69.9936C50.959 70.5263 50.7473 71.0373 50.3706 71.414C49.9939 71.7907 49.483 72.0024 48.9502 72.0024C48.4174 72.0024 47.9065 71.7907 47.5298 71.414C47.153 71.0373 46.9414 70.5263 46.9414 69.9936V48.2311C46.9414 47.6983 47.153 47.1874 47.5298 46.8106C47.9065 46.4339 48.4174 46.2223 48.9502 46.2223C49.483 46.2223 49.9939 46.4339 50.3706 46.8106C50.7473 47.1874 50.959 47.6983 50.959 48.2311V69.9936ZM62.5391 45.1723C62.5391 45.7042 62.3278 46.2143 61.9517 46.5904C61.5756 46.9665 61.0655 47.1778 60.5336 47.1778C60.0018 47.1778 59.4917 46.9665 59.1156 46.5904C58.7395 46.2143 58.5282 45.7042 58.5282 45.1723V35.5909H48.9468C48.415 35.5909 47.9049 35.3797 47.5288 35.0036C47.1527 34.6275 46.9414 34.1174 46.9414 33.5855C46.9414 33.0536 47.1527 32.5436 47.5288 32.1675C47.9049 31.7914 48.415 31.5801 48.9468 31.5801H60.5336C60.7973 31.579 61.0586 31.6301 61.3024 31.7305C61.5462 31.8309 61.7677 31.9785 61.9542 32.165C62.1406 32.3514 62.2883 32.5729 62.3887 32.8168C62.4891 33.0606 62.5402 33.3218 62.5391 33.5855V45.1723Z" fill="#FCFCFE"/>
<path d="M50.25 23.3086C56.4654 23.313 62.4882 25.4656 67.2983 29.4019C72.1083 33.3382 75.4099 38.8161 76.6439 44.9077C77.8778 50.9994 76.9682 57.3303 74.0691 62.8282C71.17 68.326 66.4597 72.6528 60.736 75.0756C54.1518 77.8566 46.7326 77.9081 40.1105 75.2189C33.4883 72.5297 28.2057 67.3199 25.4246 60.7358C22.6436 54.1516 22.5921 46.7324 25.2813 40.1103C27.9705 33.4881 33.1803 28.2054 39.7644 25.4244C43.0817 24.0209 46.6481 23.3012 50.25 23.3086ZM50.25 20C33.5438 20 20 33.5435 20 50.25C20 66.9565 33.5438 80.5 50.25 80.5C66.9571 80.5 80.5 66.9566 80.5 50.25C80.5 33.5434 66.9571 20 50.25 20Z" fill="#FCFCFE"/>
</g>
<defs>
<clipPath id="clip0_2_3398">
<rect width="60.5" height="60.5" fill="white" transform="translate(20 20)"/>
</clipPath>
</defs>
</svg>
